<?xml version="1.0" standalone="no"?>
<svg viewBox="0 0 200 200" xmlns="http://www.w3.org/2000/svg">
  <path fill="#FEE03B" d="M33.2,-56.7C39.2,-47.8,37.6,-32.1,41.9,-20C46.1,-7.8,56.1,0.8,58.8,11.1C61.4,21.4,56.7,33.2,49.3,43.8C41.8,54.4,31.6,63.6,20.8,63.6C9.9,63.5,-1.6,54.2,-16.3,51.6C-30.9,49,-48.6,53.3,-59.5,47.7C-70.3,42.1,-74.2,26.7,-68.9,14.5C-63.6,2.3,-48.9,-6.7,-42.5,-18.8C-36,-30.9,-37.7,-46.1,-32,-55.1C-26.3,-64.2,-13.1,-67.1,0.2,-67.5C13.6,-67.8,27.2,-65.6,33.2,-56.7Z" transform="translate(100 100)" />
</svg>
